<?xml version="1.0" standalone="no"?>
<!DOCTYPE svg PUBLIC "-//W3C//DTD SVG 20010904//EN"
 "http://www.w3.org/TR/2001/REC-SVG-20010904/DTD/svg10.dtd">
<svg version="1.0" xmlns="http://www.w3.org/2000/svg"
 width="296.000000pt" height="296.000000pt" viewBox="0 0 296.000000 296.000000"
 preserveAspectRatio="xMidYMid meet">

<g transform="translate(0.000000,296.000000) scale(0.100000,-0.100000)"
fill="#000000" stroke="none">
<path d="M1395 2898 c-89 -77 -244 -180 -332 -220 -163 -74 -351 -122 -523
-135 -52 -3 -97 -12 -104 -19 -7 -7 -16 -51 -19 -101 -23 -322 -150 -622 -368
-873 -27 -31 -49 -63 -49 -71 0 -8 27 -45 61 -82 204 -233 331 -537 355 -852
8 -108 19 -125 80 -125 23 0 78 -5 121 -11 289 -39 537 -148 758 -333 50 -41
97 -75 105 -76 8 0 44 26 80 58 239 209 541 336 852 358 71 5 101 11 111 23 9
10 17 52 20 112 19 301 143 599 351 841 36 42 66 82 66 88 0 6 -22 37 -49 67
-215 241 -346 550 -367 865 -4 57 -12 99 -21 109 -10 12 -40 18 -108 23 -315
22 -587 134 -842 348 -45 37 -88 68 -95 68 -7 -1 -44 -28 -83 -62z m153 -112
c235 -189 525 -307 818 -334 l79 -7 7 -80 c26 -292 145 -581 334 -817 l54 -67
-84 -112 c-171 -225 -285 -516 -303 -772 -4 -44 -11 -80 -17 -82 -6 -2 -65
-10 -132 -19 -148 -19 -264 -52 -411 -115 -113 -49 -266 -143 -358 -219 -27
-23 -52 -42 -56 -42 -3 0 -35 23 -70 52 -234 189 -527 308 -820 334 l-76 7 -7
81 c-24 287 -155 604 -344 831 -23 27 -42 52 -42 55 0 3 27 39 61 80 172 215
289 494 320 765 6 55 13 105 14 111 2 6 40 14 86 18 285 24 609 160 829 347
25 22 46 39 48 39 2 0 33 -24 70 -54z"/>
<path d="M1379 2588 c-187 -123 -410 -215 -614 -254 -49 -9 -97 -23 -106 -31
-9 -7 -21 -43 -27 -81 -36 -216 -141 -469 -278 -669 -24 -35 -44 -68 -44 -72
0 -5 25 -46 56 -92 122 -182 224 -429 260 -627 9 -51 23 -99 30 -106 7 -7 55
-21 106 -30 198 -36 433 -133 621 -257 49 -32 93 -59 96 -59 4 0 45 25 91 56
105 70 318 174 427 209 45 15 133 37 194 49 61 13 115 29 119 36 5 7 11 34 15
59 29 201 132 463 259 656 29 44 56 86 60 93 5 8 -19 54 -62 120 -78 120 -105
172 -156 293 -36 87 -90 280 -101 361 -4 26 -14 53 -24 61 -9 8 -55 22 -103
31 -232 45 -444 135 -647 273 -35 23 -67 43 -71 43 -4 0 -49 -28 -101 -62z
m183 -102 c95 -61 196 -113 300 -155 75 -29 265 -85 329 -95 l36 -6 28 -118
c47 -199 127 -390 229 -547 l56 -85 -56 -85 c-103 -158 -193 -377 -235 -567
-11 -51 -21 -93 -22 -94 -1 -1 -60 -16 -132 -34 -202 -50 -374 -123 -533 -226
l-84 -55 -66 45 c-178 117 -392 206 -604 250 -38 8 -72 17 -74 19 -3 3 -16 51
-29 108 -44 194 -119 378 -223 542 l-61 97 61 97 c116 185 195 387 244 630 3
17 14 24 42 28 54 9 235 62 317 92 94 35 246 113 325 167 36 25 66 45 67 45 1
1 40 -23 85 -53z"/>
<path d="M1405 2323 c-93 -56 -258 -127 -390 -168 -170 -52 -162 -48 -175 -97
-42 -167 -109 -335 -191 -480 -27 -48 -49 -93 -49 -99 0 -6 22 -50 49 -98 75
-131 151 -321 191 -479 13 -49 -1 -42 200 -106 128 -41 264 -102 397 -177 l43
-24 32 19 c111 66 279 141 406 181 204 66 189 58 202 107 40 166 133 389 226
546 19 32 19 32 -4 70 -82 136 -165 329 -208 485 -21 76 -32 101 -48 107 -12
4 -75 25 -141 45 -137 42 -265 97 -377 161 -42 24 -83 44 -90 44 -7 -1 -40
-17 -73 -37z m223 -146 c88 -43 198 -88 275 -112 l127 -39 11 -41 c25 -102 76
-232 140 -362 l70 -143 -70 -142 c-65 -132 -115 -263 -141 -365 -7 -30 -17
-44 -33 -48 -146 -42 -266 -88 -385 -147 l-142 -70 -133 66 c-72 36 -195 87
-273 112 l-141 46 -47 143 c-26 79 -77 202 -113 274 l-65 130 65 133 c65 132
113 252 142 358 l15 56 125 39 c77 23 181 66 268 110 78 39 145 72 150 73 4 1
74 -31 155 -71z"/>
<path d="M1365 2035 c-49 -23 -135 -59 -190 -79 -55 -20 -107 -40 -115 -45 -8
-4 -30 -50 -48 -102 -18 -52 -57 -148 -87 -214 l-55 -119 54 -116 c30 -63 69
-157 86 -207 18 -51 38 -97 44 -102 7 -6 52 -24 102 -42 49 -17 142 -56 207
-86 l118 -55 104 51 c58 28 151 67 207 86 57 20 108 41 114 48 6 7 28 59 49
117 21 58 59 151 86 207 l48 103 -49 102 c-26 57 -64 148 -84 203 -20 55 -40
106 -44 114 -4 7 -56 31 -115 52 -59 21 -151 58 -204 83 -52 26 -105 46 -117
45 -11 0 -61 -20 -111 -44z m216 -99 c52 -24 130 -56 175 -72 l80 -28 29 -80
c15 -45 48 -125 73 -178 l44 -97 -50 -113 c-27 -62 -61 -143 -73 -181 l-24
-67 -65 -21 c-36 -12 -116 -44 -178 -72 l-112 -50 -103 46 c-56 25 -137 57
-179 72 l-77 27 -22 67 c-12 36 -44 117 -71 179 l-50 112 50 113 c27 61 60
141 72 177 l23 65 93 34 c52 19 129 51 171 72 43 20 83 38 89 38 6 1 53 -19
105 -43z"/>
<path d="M1350 1770 l-115 -49 -38 -93 c-66 -160 -64 -145 -24 -239 19 -46 42
-99 49 -118 12 -31 25 -39 118 -79 58 -25 121 -45 140 -45 19 0 82 20 139 44
l104 45 39 95 c66 159 65 145 26 235 -19 43 -40 95 -47 116 -11 34 -18 39
-133 87 -66 28 -126 51 -132 50 -6 0 -63 -23 -126 -49z m215 -85 c39 -15 75
-33 81 -39 6 -6 25 -46 42 -89 l31 -79 -33 -81 c-36 -87 -36 -87 -143 -133
l-62 -26 -78 32 c-43 17 -83 37 -89 43 -6 7 -25 47 -42 90 l-32 77 32 78 c17
42 35 81 39 86 12 14 162 76 174 72 6 -2 42 -16 80 -31z"/>
</g>
</svg>
